<?xml version="1.0" encoding="UTF-8" standalone="no"?>
<svg
   xmlns:dc="http://purl.org/dc/elements/1.1/"
   xmlns:cc="http://creativecommons.org/ns#"
   xmlns:rdf="http://www.w3.org/1999/02/22-rdf-syntax-ns#"
   xmlns:svg="http://www.w3.org/2000/svg"
   xmlns="http://www.w3.org/2000/svg"
   xmlns:sodipodi="http://sodipodi.sourceforge.net/DTD/sodipodi-0.dtd"
   xmlns:inkscape="http://www.inkscape.org/namespaces/inkscape"
   inkscape:version="1.0 (4035a4f, 2020-05-01)"
   id="svg4873"
   version="1.1"
   viewBox="0 0 63.000019 87.999992"
   height="87.999992mm"
   width="63.000019mm">
  <defs
     id="defs4867" />
  <sodipodi:namedview
     inkscape:window-maximized="0"
     inkscape:window-y="23"
     inkscape:window-x="0"
     inkscape:window-height="1174"
     inkscape:window-width="1252"
     showgrid="false"
     inkscape:document-rotation="0"
     inkscape:current-layer="layer1"
     inkscape:document-units="mm"
     inkscape:cy="166.29919"
     inkscape:cx="119.05515"
     inkscape:zoom="0.35"
     inkscape:pageshadow="2"
     inkscape:pageopacity="0.0"
     borderopacity="1.0"
     bordercolor="#666666"
     pagecolor="#ffffff"
     id="base" />
  <metadata
     id="metadata4870">
    <rdf:RDF>
      <cc:Work
         rdf:about="">
        <dc:format>image/svg+xml</dc:format>
        <dc:type
           rdf:resource="http://purl.org/dc/dcmitype/StillImage" />
        <dc:title></dc:title>
      </cc:Work>
    </rdf:RDF>
  </metadata>
  <g
     transform="translate(-74.333325,-104.16667)"
     id="layer1"
     inkscape:groupmode="layer"
     inkscape:label="Layer 1">
    <g
       id="g5120"
       transform="matrix(-0.28348728,0,0,-0.28312782,268.73917,-115.98102)"
       style="stroke-width:0.996169">
      <rect
         y="-1088.3695"
         x="463.53342"
         height="310.81366"
         width="222.23225"
         id="rect6355-6-85-9-3-2"
         style="display:inline;fill:#ffffff;fill-opacity:1;stroke:none;stroke-width:0.992914;stroke-miterlimit:4;stroke-dasharray:none;stroke-opacity:1"
         rx="10.582484"
         ry="10.59592" />
      <path
         style="display:inline;opacity:1;stroke-width:0.996169"
         sodipodi:nodetypes="ccccccccccccccc"
         inkscape:connector-curvature="0"
         id="path147-0-8-1-6-1-1-0-9-1-8"
         d="m 574.6454,-956.47145 c -9.77448,0.21226 -14.15742,11.21727 -6.91838,19.76329 1.04991,1.24653 1.15822,1.96187 -0.76457,0.76452 -4.87385,-3.25919 -14.21926,-1.11662 -14.69781,8.84728 -0.59115,12.27695 16.56285,15.81427 19.78371,2.75967 0.17004,-1.37736 1.28941,-1.34593 1.01952,0.60916 -0.29367,5.30641 -1.95083,10.26606 -4.22862,15.10253 3.83908,0 8.12955,0 11.62019,0 -2.27768,-4.83647 -3.93495,-9.79612 -4.22863,-15.10253 -0.26989,-1.95509 0.84949,-1.98652 1.01953,-0.60916 3.22086,13.0546 20.37486,9.51728 19.78371,-2.75967 -0.47845,-9.9639 -9.82396,-12.10647 -14.69781,-8.84728 -1.92278,1.19735 -1.81447,0.48201 -0.76457,-0.76452 7.23905,-8.54602 2.8561,-19.55102 -6.91829,-19.76329 0,-6e-5 0,5e-5 -0.01,0 z" />
      <path
         style="display:inline;opacity:1;stroke-width:0.996169"
         sodipodi:nodetypes="ccccccccccccccc"
         inkscape:connector-curvature="0"
         id="path147-6-9-8-7-0-5-0-8-3"
         d="m 668.62737,-827.36918 c 3.90978,-0.0884 5.66302,-4.67387 2.7674,-8.2347 -0.42002,-0.51939 -0.46333,-0.81746 0.30583,-0.31856 1.94956,1.358 5.6877,0.46526 5.87914,-3.68637 0.23644,-5.11539 -6.6252,-6.58927 -7.91353,-1.14986 -0.0677,0.57391 -0.51578,0.56081 -0.40777,-0.25381 0.11748,-2.21101 0.78031,-4.27753 1.69142,-6.29272 -1.54925,0 -3.09861,0 -4.64787,0 0.91112,2.01519 1.57395,4.08171 1.69142,6.29272 0.10802,0.81462 -0.33977,0.82772 -0.40777,0.25381 -1.28832,-5.43941 -8.14997,-3.96553 -7.91353,1.14986 0.19144,4.15163 3.92959,5.04437 5.87915,3.68637 0.76915,-0.4989 0.72585,-0.20083 0.30583,0.31856 -2.89562,3.56083 -1.14238,8.14624 2.76729,8.2347 10e-4,2e-5 0,-2e-5 0,0 z" />
      <path
         style="display:inline;opacity:1;stroke-width:0.996169"
         inkscape:connector-curvature="0"
         id="path41-6-3-5-1"
         d="m 470.62543,-1041.6816 v -2.8127 h 2.68028 l 5.70981,-30.0817 h 3.24983 l 6.2897,30.0817 h 2.1644 v 2.8127 h -7.37513 v -2.8127 h 1.99038 l -0.79484,-4.6099 h -7.44035 l -0.57473,4.6099 h 1.99028 v 2.8127 z m 13.27957,-10.7064 -3.2345,-16.1007 -3.02962,16.1007 z m 0,0" />
      <path
         style="display:inline;opacity:1;stroke-width:0.996169"
         inkscape:connector-curvature="0"
         id="path41-6-4-0-2-8"
         d="m 658.57747,-824.24369 v 2.81266 h 2.68028 l 5.70981,30.08178 h 3.24983 l 6.28971,-30.08178 h 2.1644 v -2.81266 h -7.37514 v 2.81266 h 1.99038 l -0.79484,4.60989 h -7.44035 l -0.57472,-4.60989 h 1.99027 v -2.81266 z m 13.27958,10.70638 -3.23451,16.10071 -3.02962,-16.10071 z m 0,0" />
      <path
         style="display:inline;opacity:1;stroke-width:0.996169"
         sodipodi:nodetypes="ccccccccccccccc"
         inkscape:connector-curvature="0"
         id="path147-6-9-8-7-4-5-6-8-9"
         d="m 480.67243,-1038.5561 c -3.90977,0.088 -5.66301,4.6738 -2.76739,8.2347 0.42001,0.5194 0.46332,0.8174 -0.30583,0.3185 -1.94956,-1.358 -5.6877,-0.4652 -5.87914,3.6864 -0.23644,5.1154 6.62519,6.5893 7.91352,1.1499 0.0677,-0.5739 0.51579,-0.5608 0.40777,0.2538 -0.11747,2.211 -0.7803,4.2775 -1.69142,6.2927 1.54926,0 3.09861,0 4.64787,0 -0.91112,-2.0152 -1.57395,-4.0817 -1.69142,-6.2927 -0.10801,-0.8146 0.33978,-0.8277 0.40777,-0.2538 1.28833,5.4394 8.14997,3.9655 7.91353,-1.1499 -0.19144,-4.1516 -3.92958,-5.0444 -5.87915,-3.6864 -0.76915,0.4989 -0.72584,0.2009 -0.30582,-0.3185 2.89562,-3.5609 1.14238,-8.1463 -2.7673,-8.2347 -10e-4,0 0,0 0,0 z" />
    </g>
  </g>
</svg>
