<?xml version="1.0" encoding="UTF-8" standalone="no"?>
<svg
   xmlns:dc="http://purl.org/dc/elements/1.1/"
   xmlns:cc="http://creativecommons.org/ns#"
   xmlns:rdf="http://www.w3.org/1999/02/22-rdf-syntax-ns#"
   xmlns:svg="http://www.w3.org/2000/svg"
   xmlns="http://www.w3.org/2000/svg"
   xmlns:sodipodi="http://sodipodi.sourceforge.net/DTD/sodipodi-0.dtd"
   xmlns:inkscape="http://www.inkscape.org/namespaces/inkscape"
   inkscape:version="1.0 (4035a4f, 2020-05-01)"
   id="svg9413"
   version="1.1"
   viewBox="0 0 63.000011 87.999992"
   height="87.999992mm"
   width="63.000011mm">
  <defs
     id="defs9407" />
  <sodipodi:namedview
     inkscape:window-maximized="0"
     inkscape:window-y="23"
     inkscape:window-x="0"
     inkscape:window-height="1174"
     inkscape:window-width="1252"
     showgrid="false"
     inkscape:document-rotation="0"
     inkscape:current-layer="layer1"
     inkscape:document-units="mm"
     inkscape:cy="-407.98653"
     inkscape:cx="356.19801"
     inkscape:zoom="0.35"
     inkscape:pageshadow="2"
     inkscape:pageopacity="0.0"
     borderopacity="1.0"
     bordercolor="#666666"
     pagecolor="#ffffff"
     id="base" />
  <metadata
     id="metadata9410">
    <rdf:RDF>
      <cc:Work
         rdf:about="">
        <dc:format>image/svg+xml</dc:format>
        <dc:type
           rdf:resource="http://purl.org/dc/dcmitype/StillImage" />
        <dc:title></dc:title>
      </cc:Work>
    </rdf:RDF>
  </metadata>
  <g
     transform="translate(-11.589276,-256.1131)"
     id="layer1"
     inkscape:groupmode="layer"
     inkscape:label="Layer 1">
    <g
       id="g6735"
       transform="matrix(-0.28222228,0,0,-0.28222218,428.97879,335.52086)"
       style="stroke-width:0.99617">
      <rect
         y="-30.444927"
         x="1255.7106"
         height="311.81104"
         width="223.22835"
         id="rect6622-5"
         style="display:inline;fill:#ffffff;fill-opacity:1;stroke:none;stroke-width:0.996734;stroke-miterlimit:4;stroke-dasharray:none;stroke-opacity:1"
         rx="10.629917"
         ry="10.629922" />
      <path
         inkscape:connector-curvature="0"
         id="path6654-0"
         d="m 1272.9278,39.528358 c -2.1609,-3.568597 -4.4343,-7.037098 -7.2754,-9.999997 2.8411,-2.962801 5.1145,-6.4313 7.2754,-10 2.1609,3.5687 4.4344,7.037199 7.2754,10 -2.841,2.962899 -5.1145,6.4314 -7.2754,9.999997 z"
         style="display:inline;opacity:1;fill:#d40000;stroke-width:0.99617" />
      <path
         inkscape:connector-curvature="0"
         id="path6656-6"
         d="m 1419.0911,50.24996 c -5.1862,-8.5648 -10.6424,-16.8891 -17.4609,-24 6.8185,-7.1108 12.2747,-15.4351 17.4609,-24 5.1862,8.5649 10.6425,16.8892 17.461,24 -6.8185,7.1109 -12.2748,15.4352 -17.461,24 z"
         style="display:inline;opacity:1;fill:#d40000;stroke-width:0.99617" />
      <path
         style="display:inline;opacity:1;fill:#d40000;stroke-width:0.99617"
         d="m 1461.7223,231.393 c -2.1609,-3.5686 -4.4343,-7.0371 -7.2754,-10 2.8411,-2.9628 5.1145,-6.4313 7.2754,-10 2.1609,3.5687 4.4344,7.0372 7.2754,10 -2.841,2.9629 -5.1145,6.4314 -7.2754,10 z"
         id="path6658-8"
         inkscape:connector-curvature="0" />
      <path
         inkscape:connector-curvature="0"
         id="path6660-7"
         d="m 1315.5583,50.24996 c -5.1862,-8.5648 -10.6424,-16.8891 -17.4609,-24 6.8185,-7.1108 12.2747,-15.4351 17.4609,-24 5.1862,8.5649 10.6425,16.8892 17.461,24 -6.8185,7.1109 -12.2748,15.4352 -17.461,24 z"
         style="display:inline;opacity:1;fill:#d40000;stroke-width:0.99617" />
      <path
         style="display:inline;opacity:1;fill:#d40000;stroke-width:0.99617"
         d="m 1315.5583,248.67634 c -5.1862,-8.5648 -10.6424,-16.8891 -17.4609,-24 6.8185,-7.1108 12.2747,-15.4351 17.4609,-24 5.1862,8.5649 10.6425,16.8892 17.461,24 -6.8185,7.1109 -12.2748,15.4352 -17.461,24 z"
         id="path6676-4"
         inkscape:connector-curvature="0" />
      <path
         style="display:inline;opacity:1;fill:#d40000;stroke-width:0.99617"
         d="m 1419.0911,248.68328 c -5.1862,-8.5648 -10.6424,-16.8891 -17.4609,-24 6.8185,-7.1108 12.2747,-15.4351 17.4609,-24 5.1862,8.5649 10.6425,16.8892 17.461,24 -6.8185,7.1109 -12.2748,15.4352 -17.461,24 z"
         id="path6678-8"
         inkscape:connector-curvature="0" />
      <path
         style="opacity:1;fill:#d40000;fill-opacity:1;stroke-width:0.99617"
         inkscape:connector-curvature="0"
         id="path19-3-1-9-0"
         d="m 1273.1578,16.3887 v -2.9146 h 2.6305 v -4.808 h -13.1577 V 5.2735 l 14.2377,-21.8808 2.3258,0.012 v 21.869 h 4.028 v 3.3926 h -4.028 l -0.076,4.808 h 2.2049 v 2.9186 h -8.1653 z m 2.6305,-24.9853 -9.0396,13.8714 h 9.0396 z m 0,0" />
      <path
         style="opacity:1;fill:#d40000;fill-opacity:1;stroke-width:0.99617"
         inkscape:connector-curvature="0"
         id="path19-4-46-7-7"
         d="m 1461.4894,234.5325 v 2.9147 h -2.6305 v 4.808 h 13.1577 v 3.3925 l -14.2377,21.8809 -2.3258,-0.012 v -21.8691 h -4.028 v -3.3925 h 4.028 l 0.076,-4.808 h -2.2049 v -2.9186 h 8.1653 z m -2.6305,24.9854 9.0396,-13.8715 h -9.0396 z m 0,0" />
    </g>
  </g>
</svg>
