<?xml version="1.0" encoding="UTF-8" standalone="no"?>
<svg
   xmlns:dc="http://purl.org/dc/elements/1.1/"
   xmlns:cc="http://creativecommons.org/ns#"
   xmlns:rdf="http://www.w3.org/1999/02/22-rdf-syntax-ns#"
   xmlns:svg="http://www.w3.org/2000/svg"
   xmlns="http://www.w3.org/2000/svg"
   xmlns:sodipodi="http://sodipodi.sourceforge.net/DTD/sodipodi-0.dtd"
   xmlns:inkscape="http://www.inkscape.org/namespaces/inkscape"
   inkscape:version="1.0 (4035a4f, 2020-05-01)"
   id="svg9482"
   version="1.1"
   viewBox="0 0 63.000011 87.999992"
   height="87.999992mm"
   width="63.000011mm">
  <defs
     id="defs9476" />
  <sodipodi:namedview
     inkscape:window-maximized="0"
     inkscape:window-y="23"
     inkscape:window-x="0"
     inkscape:window-height="1174"
     inkscape:window-width="1252"
     showgrid="false"
     inkscape:document-rotation="0"
     inkscape:current-layer="layer1"
     inkscape:document-units="mm"
     inkscape:cy="-467.98653"
     inkscape:cx="256.198"
     inkscape:zoom="0.35"
     inkscape:pageshadow="2"
     inkscape:pageopacity="0.0"
     borderopacity="1.0"
     bordercolor="#666666"
     pagecolor="#ffffff"
     id="base" />
  <metadata
     id="metadata9479">
    <rdf:RDF>
      <cc:Work
         rdf:about="">
        <dc:format>image/svg+xml</dc:format>
        <dc:type
           rdf:resource="http://purl.org/dc/dcmitype/StillImage" />
        <dc:title></dc:title>
      </cc:Work>
    </rdf:RDF>
  </metadata>
  <g
     transform="translate(-38.047612,-271.9881)"
     id="layer1"
     inkscape:groupmode="layer"
     inkscape:label="Layer 1">
    <g
       id="g6746"
       transform="matrix(-0.28222228,0,0,-0.28222218,530.00737,351.39586)"
       style="stroke-width:0.99617">
      <rect
         ry="10.629922"
         rx="10.629917"
         style="display:inline;fill:#ffffff;fill-opacity:1;stroke:none;stroke-width:0.996734;stroke-miterlimit:4;stroke-dasharray:none;stroke-opacity:1"
         id="rect6690-8"
         width="223.22835"
         height="311.81104"
         x="1519.9358"
         y="-30.444927" />
      <path
         style="display:inline;opacity:1;fill:#d40000;stroke-width:0.99617"
         d="m 1537.153,39.528358 c -2.1609,-3.568597 -4.4344,-7.037098 -7.2754,-9.999997 2.841,-2.962801 5.1145,-6.4313 7.2754,-10 2.1609,3.5687 4.4343,7.037199 7.2754,10 -2.8411,2.962899 -5.1145,6.4314 -7.2754,9.999997 z"
         id="path6722-9"
         inkscape:connector-curvature="0" />
      <path
         style="display:inline;opacity:1;fill:#d40000;stroke-width:0.99617"
         d="m 1683.3163,50.24996 c -5.1862,-8.5648 -10.6425,-16.8891 -17.461,-24 6.8185,-7.1108 12.2748,-15.4351 17.461,-24 5.1862,8.5649 10.6424,16.8892 17.4609,24 -6.8185,7.1109 -12.2747,15.4352 -17.4609,24 z"
         id="path6724-6"
         inkscape:connector-curvature="0" />
      <path
         inkscape:connector-curvature="0"
         id="path6726-3"
         d="m 1725.9475,231.393 c -2.1609,-3.5686 -4.4344,-7.0371 -7.2754,-10 2.841,-2.9628 5.1145,-6.4313 7.2754,-10 2.1609,3.5687 4.4343,7.0372 7.2754,10 -2.8411,2.9629 -5.1145,6.4314 -7.2754,10 z"
         style="display:inline;opacity:1;fill:#d40000;stroke-width:0.99617" />
      <path
         style="display:inline;opacity:1;fill:#d40000;stroke-width:0.99617"
         d="m 1579.7835,50.24996 c -5.1862,-8.5648 -10.6425,-16.8891 -17.461,-24 6.8185,-7.1108 12.2748,-15.4351 17.461,-24 5.1862,8.5649 10.6424,16.8892 17.4609,24 -6.8185,7.1109 -12.2747,15.4352 -17.4609,24 z"
         id="path6728-7"
         inkscape:connector-curvature="0" />
      <path
         inkscape:connector-curvature="0"
         id="path6736-0"
         d="m 1631.5499,149.46061 c -5.1862,-8.5648 -10.6425,-16.8891 -17.461,-24 6.8185,-7.1108 12.2748,-15.4351 17.461,-24 5.1862,8.5649 10.6424,16.8892 17.4609,24 -6.8185,7.1109 -12.2747,15.4352 -17.4609,24 z"
         style="display:inline;opacity:1;fill:#d40000;stroke-width:0.99617" />
      <path
         inkscape:connector-curvature="0"
         id="path6744-9"
         d="m 1579.7835,248.67634 c -5.1862,-8.5648 -10.6425,-16.8891 -17.461,-24 6.8185,-7.1108 12.2748,-15.4351 17.461,-24 5.1862,8.5649 10.6424,16.8892 17.4609,24 -6.8185,7.1109 -12.2747,15.4352 -17.4609,24 z"
         style="display:inline;opacity:1;fill:#d40000;stroke-width:0.99617" />
      <path
         inkscape:connector-curvature="0"
         id="path6746-2"
         d="m 1683.3163,248.68328 c -5.1862,-8.5648 -10.6425,-16.8891 -17.461,-24 6.8185,-7.1108 12.2748,-15.4351 17.461,-24 5.1862,8.5649 10.6424,16.8892 17.4609,24 -6.8185,7.1109 -12.2747,15.4352 -17.4609,24 z"
         style="display:inline;opacity:1;fill:#d40000;stroke-width:0.99617" />
      <path
         style="opacity:1;fill:#d40000;fill-opacity:1;stroke-width:0.99617"
         inkscape:connector-curvature="0"
         id="path21-9-8-2-7"
         d="m 1526.7501,7.8496 3.2348,-0.031 c 0.6171,1.9918 1.9825,4.0164 3.8365,4.5782 5.2378,1.2532 8.6076,-1.7286 9.7172,-5.1662 1.3461,-4.1696 -0.03,-10.0246 -3.636,-12.1028 -2.9879,-1.7234 -7.4274,-0.2698 -9.4664,3.4166 l -2.2654,-1.4117 1.2162,-13.7398 h 14.7995 v 3.2477 h -11.9928 l -0.1903,5.724 c 2.5817,-1.8464 6.5493,-1.8268 9.1296,-0.5316 4.8869,2.3742 7.1574,7.7721 6.2086,14.1339 -1.3165,6.3277 -4.2196,9.9133 -10.7676,10.4253 -7.2834,0.067 -9.8548,-5.0339 -9.8239,-8.5422 v 0 z m 0,0" />
      <path
         style="opacity:1;fill:#d40000;fill-opacity:1;stroke-width:0.99617"
         inkscape:connector-curvature="0"
         id="path21-3-0-8-6"
         d="m 1736.3475,243.0718 -3.2348,0.031 c -0.6171,-1.9919 -1.9825,-4.0164 -3.8365,-4.5782 -5.2378,-1.2533 -8.6076,1.7286 -9.7172,5.1661 -1.3461,4.1697 0.03,10.0246 3.636,12.1029 2.9879,1.7234 7.4274,0.2698 9.4664,-3.4166 l 2.2654,1.4117 -1.2162,13.7398 h -14.7995 v -3.2477 h 11.9928 l 0.1903,-5.7241 c -2.5817,1.8465 -6.5493,1.8269 -9.1296,0.5317 -4.8869,-2.3742 -7.1574,-7.7722 -6.2086,-14.1339 1.3165,-6.3278 4.2196,-9.9133 10.7676,-10.4254 7.2834,-0.067 9.8548,5.0339 9.8239,8.5422 v 0 z m 0,0" />
    </g>
  </g>
</svg>
