<?xml version="1.0" encoding="UTF-8" standalone="no"?>
<svg
   xmlns:dc="http://purl.org/dc/elements/1.1/"
   xmlns:cc="http://creativecommons.org/ns#"
   xmlns:rdf="http://www.w3.org/1999/02/22-rdf-syntax-ns#"
   xmlns:svg="http://www.w3.org/2000/svg"
   xmlns="http://www.w3.org/2000/svg"
   xmlns:sodipodi="http://sodipodi.sourceforge.net/DTD/sodipodi-0.dtd"
   xmlns:inkscape="http://www.inkscape.org/namespaces/inkscape"
   inkscape:version="1.0 (4035a4f, 2020-05-01)"
   id="svg9629"
   version="1.1"
   viewBox="0 0 63.000011 87.999992"
   height="87.999992mm"
   width="63.000011mm">
  <defs
     id="defs9623" />
  <sodipodi:namedview
     inkscape:window-maximized="0"
     inkscape:window-y="23"
     inkscape:window-x="0"
     inkscape:window-height="1174"
     inkscape:window-width="1252"
     showgrid="false"
     inkscape:document-rotation="0"
     inkscape:current-layer="layer1"
     inkscape:document-units="mm"
     inkscape:cy="-359.41511"
     inkscape:cx="-192.37341"
     inkscape:zoom="0.35"
     inkscape:pageshadow="2"
     inkscape:pageopacity="0.0"
     borderopacity="1.0"
     bordercolor="#666666"
     pagecolor="#ffffff"
     id="base" />
  <metadata
     id="metadata9626">
    <rdf:RDF>
      <cc:Work
         rdf:about="">
        <dc:format>image/svg+xml</dc:format>
        <dc:type
           rdf:resource="http://purl.org/dc/dcmitype/StillImage" />
        <dc:title></dc:title>
      </cc:Work>
    </rdf:RDF>
  </metadata>
  <g
     transform="translate(-156.73213,-243.26191)"
     id="layer1"
     inkscape:groupmode="layer"
     inkscape:label="Layer 1">
    <g
       id="g6771"
       transform="matrix(-0.28222228,0,0,-0.28222218,797.83224,322.66967)"
       style="stroke-width:0.99617">
      <rect
         ry="10.629922"
         rx="10.629917"
         style="display:inline;fill:#ffffff;fill-opacity:1;stroke:none;stroke-width:0.996734;stroke-miterlimit:4;stroke-dasharray:none;stroke-opacity:1"
         id="rect6826-9"
         width="223.22835"
         height="311.81104"
         x="2048.3857"
         y="-30.444927" />
      <path
         style="display:inline;opacity:1;fill:#d40000;stroke-width:0.99617"
         d="m 2065.6031,39.528358 c -2.1609,-3.568597 -4.4344,-7.037098 -7.2754,-9.999997 2.841,-2.962801 5.1145,-6.4313 7.2754,-10 2.1609,3.5687 4.4343,7.037199 7.2754,10 -2.8411,2.962899 -5.1145,6.4314 -7.2754,9.999997 z"
         id="path6858-4"
         inkscape:connector-curvature="0" />
      <path
         style="display:inline;opacity:1;fill:#d40000;stroke-width:0.99617"
         d="m 2211.7664,50.24996 c -5.1862,-8.5648 -10.6425,-16.8891 -17.461,-24 6.8185,-7.1108 12.2748,-15.4351 17.461,-24 5.1862,8.5649 10.6424,16.8892 17.4609,24 -6.8185,7.1109 -12.2747,15.4352 -17.4609,24 z"
         id="path6860-1"
         inkscape:connector-curvature="0" />
      <path
         inkscape:connector-curvature="0"
         id="path6862-0"
         d="m 2254.3976,231.393 c -2.1609,-3.5686 -4.4344,-7.0371 -7.2754,-10 2.841,-2.9628 5.1145,-6.4313 7.2754,-10 2.1609,3.5687 4.4343,7.0372 7.2754,10 -2.8411,2.9629 -5.1145,6.4314 -7.2754,10 z"
         style="display:inline;opacity:1;fill:#d40000;stroke-width:0.99617" />
      <path
         style="display:inline;opacity:1;fill:#d40000;stroke-width:0.99617"
         d="m 2108.2336,50.24996 c -5.1862,-8.5648 -10.6425,-16.8891 -17.461,-24 6.8185,-7.1108 12.2748,-15.4351 17.461,-24 5.1862,8.5649 10.6424,16.8892 17.4609,24 -6.8185,7.1109 -12.2747,15.4352 -17.4609,24 z"
         id="path6864-5"
         inkscape:connector-curvature="0" />
      <path
         inkscape:connector-curvature="0"
         id="path6870-5"
         d="m 2160,99.83912 c -5.1862,-8.5648 -10.6425,-16.88911 -17.461,-24 6.8185,-7.110804 12.2748,-15.435104 17.461,-24.000003 5.1862,8.564899 10.6424,16.889199 17.4609,24.000003 -6.8185,7.11089 -12.2747,15.4352 -17.4609,24 z"
         style="display:inline;opacity:1;fill:#d40000;stroke-width:0.99617" />
      <path
         style="display:inline;opacity:1;fill:#d40000;stroke-width:0.99617"
         d="m 2108.2336,149.42827 c -5.1862,-8.5648 -10.6425,-16.8891 -17.461,-24 6.8185,-7.1108 12.2748,-15.4351 17.461,-24 5.1862,8.5649 10.6424,16.8892 17.4609,24 -6.8185,7.1109 -12.2747,15.4352 -17.4609,24 z"
         id="path6874-1"
         inkscape:connector-curvature="0" />
      <path
         style="display:inline;opacity:1;fill:#d40000;stroke-width:0.99617"
         d="m 2211.7664,149.44384 c -5.1862,-8.5648 -10.6425,-16.8891 -17.461,-24 6.8185,-7.1108 12.2748,-15.4351 17.461,-24 5.1862,8.5649 10.6424,16.8892 17.4609,24 -6.8185,7.1109 -12.2747,15.4352 -17.4609,24 z"
         id="path6876-6"
         inkscape:connector-curvature="0" />
      <path
         inkscape:connector-curvature="0"
         id="path6880-5"
         d="m 2108.2336,248.67634 c -5.1862,-8.5648 -10.6425,-16.8891 -17.461,-24 6.8185,-7.1108 12.2748,-15.4351 17.461,-24 5.1862,8.5649 10.6424,16.8892 17.4609,24 -6.8185,7.1109 -12.2747,15.4352 -17.4609,24 z"
         style="display:inline;opacity:1;fill:#d40000;stroke-width:0.99617" />
      <path
         inkscape:connector-curvature="0"
         id="path6882-9"
         d="m 2211.7664,248.68328 c -5.1862,-8.5648 -10.6425,-16.8891 -17.461,-24 6.8185,-7.1108 12.2748,-15.4351 17.461,-24 5.1862,8.5649 10.6424,16.8892 17.4609,24 -6.8185,7.1109 -12.2747,15.4352 -17.4609,24 z"
         style="display:inline;opacity:1;fill:#d40000;stroke-width:0.99617" />
      <path
         style="opacity:1;fill:#d40000;fill-opacity:1;stroke-width:0.99617"
         inkscape:connector-curvature="0"
         id="path25-43-4-8-8"
         d="m 2060.5289,16.3892 c 2.1703,-11.4733 4.4806,-20.0867 10.5465,-29.4347 h -12.3297 v 4.0238 h -3.2734 v -7.5855 h 18.0343 l 2.2243,3.5617 c -6.4426,7.0329 -12.3388,29.7673 -11.2948,29.4347 z m 0,0" />
      <path
         style="opacity:1;fill:#d40000;fill-opacity:1;stroke-width:0.99617"
         inkscape:connector-curvature="0"
         id="path25-7-0-7-6"
         d="m 2259.4688,234.5321 c -2.1703,11.4732 -4.4806,20.0867 -10.5465,29.4347 h 12.3297 v -4.0239 h 3.2734 v 7.5856 h -18.0343 l -2.2243,-3.5617 c 6.4426,-7.0329 12.3388,-29.7673 11.2948,-29.4347 z m 0,0" />
    </g>
  </g>
</svg>
