<?xml version="1.0" encoding="UTF-8" standalone="no"?>
<svg
   xmlns:dc="http://purl.org/dc/elements/1.1/"
   xmlns:cc="http://creativecommons.org/ns#"
   xmlns:rdf="http://www.w3.org/1999/02/22-rdf-syntax-ns#"
   xmlns:svg="http://www.w3.org/2000/svg"
   xmlns="http://www.w3.org/2000/svg"
   xmlns:sodipodi="http://sodipodi.sourceforge.net/DTD/sodipodi-0.dtd"
   xmlns:inkscape="http://www.inkscape.org/namespaces/inkscape"
   inkscape:version="1.0 (4035a4f, 2020-05-01)"
   id="svg8123"
   version="1.1"
   viewBox="0 0 63.000011 87.999992"
   height="87.999992mm"
   width="63.000011mm">
  <defs
     id="defs8117" />
  <sodipodi:namedview
     inkscape:window-maximized="0"
     inkscape:window-y="23"
     inkscape:window-x="0"
     inkscape:window-height="1174"
     inkscape:window-width="1252"
     showgrid="false"
     inkscape:document-rotation="0"
     inkscape:current-layer="layer1"
     inkscape:document-units="mm"
     inkscape:cy="-839.4151"
     inkscape:cx="1121.9123"
     inkscape:zoom="0.35"
     inkscape:pageshadow="2"
     inkscape:pageopacity="0.0"
     borderopacity="1.0"
     bordercolor="#666666"
     pagecolor="#ffffff"
     id="base" />
  <metadata
     id="metadata8120">
    <rdf:RDF>
      <cc:Work
         rdf:about="">
        <dc:format>image/svg+xml</dc:format>
        <dc:type
           rdf:resource="http://purl.org/dc/dcmitype/StillImage" />
        <dc:title></dc:title>
      </cc:Work>
    </rdf:RDF>
  </metadata>
  <g
     transform="translate(191.00596,-370.26191)"
     id="layer1"
     inkscape:groupmode="layer"
     inkscape:label="Layer 1">
    <g
       style="display:inline;stroke-width:0.996169"
       id="g8409-3-3"
       transform="matrix(-0.28222228,0,0,-0.28222218,-34.136488,325.22005)">
      <rect
         ry="10.629924"
         rx="10.629917"
         style="display:inline;opacity:1;fill:#ffffff;fill-opacity:1;stroke:none;stroke-width:0.996734;stroke-miterlimit:4;stroke-dasharray:none;stroke-opacity:1"
         id="rect6355-6-85-62-9-7"
         width="223.22835"
         height="311.81104"
         x="332.60825"
         y="-471.4082" />
      <path
         style="display:inline;opacity:1;stroke-width:0.996169"
         sodipodi:nodetypes="cccccccccccc"
         inkscape:connector-curvature="0"
         id="path153-0-1-2-5-5-5-3-4"
         d="m 349.82555,-421.43493 c -4.3106,5.48214 -8.9228,8.6369 -8.9994,12.91389 -0.026,1.38495 0.8139,3.73892 3.4439,4.18949 1.7063,0.29097 4.0555,-0.94062 4.1046,-3.44272 -0.01,-0.49815 0.5914,-0.4852 0.5858,0.19738 -0.08,1.97364 -0.7809,4.27149 -1.9583,6.14196 1.8823,0 3.7645,0 5.6468,0 -1.1774,-1.87047 -1.878,-4.16832 -1.9583,-6.14196 -0.01,-0.68258 0.5933,-0.69553 0.5858,-0.19738 0.049,2.5021 2.3983,3.73369 4.1046,3.44272 2.63,-0.45057 3.4696,-2.80454 3.4439,-4.18949 -0.077,-4.27699 -4.6889,-7.43175 -8.9994,-12.91389 z" />
      <path
         style="display:inline;opacity:1;stroke-width:0.996169"
         sodipodi:nodetypes="cccccccccccc"
         inkscape:connector-curvature="0"
         id="path153-0-1-2-5-6-5-9-1-9"
         d="m 538.62005,-209.57029 c -4.3106,-5.48214 -8.9228,-8.6369 -8.9994,-12.91389 -0.026,-1.38495 0.8139,-3.73892 3.4439,-4.18949 1.7063,-0.29097 4.0555,0.94062 4.1046,3.44272 -0.01,0.49815 0.5914,0.4852 0.5858,-0.19738 -0.08,-1.97364 -0.7809,-4.27149 -1.9583,-6.14196 1.8823,0 3.7645,0 5.6468,0 -1.1774,1.87047 -1.878,4.16832 -1.9583,6.14196 -0.01,0.68258 0.5933,0.69553 0.5858,0.19738 0.049,-2.5021 2.3983,-3.73369 4.1046,-3.44272 2.63,0.45057 3.4696,2.80454 3.4439,4.18949 -0.077,4.27699 -4.6889,7.43175 -8.9994,12.91389 z" />
      <path
         sodipodi:nodetypes="cccccccccccc"
         inkscape:connector-curvature="0"
         id="path153-6-3-1-6-92-7-2-9-8"
         d="m 444.22243,-339.50268 c -9.226,13.15712 -19.0977,20.72857 -19.2617,30.99333 -0.055,3.3239 1.7421,8.97342 7.3711,10.05478 3.652,0.69833 8.6801,-2.25748 8.7851,-8.26252 -0.016,-1.19555 1.2659,-1.16448 1.2539,0.47372 -0.172,4.73672 -1.6714,10.25156 -4.1914,14.74069 4.0287,0 8.0573,0 12.086,0 -2.52,-4.48913 -4.0194,-10.00397 -4.1914,-14.74069 -0.012,-1.6382 1.2699,-1.66927 1.2539,-0.47372 0.105,6.00504 5.1331,8.96085 8.7851,8.26252 5.629,-1.08136 7.4261,-6.73088 7.3711,-10.05478 -0.164,-10.26476 -10.0357,-17.83621 -19.2617,-30.99333 z"
         style="display:inline;opacity:1;stroke-width:0.996169" />
      <path
         inkscape:connector-curvature="0"
         id="path41-4-9-2"
         d="m 339.73204,-424.57044 v -2.8217 h 2.6923 l 5.7354,-30.1783 h 3.2644 l 6.3179,30.1783 h 2.1741 v 2.8217 h -7.4082 v -2.8217 h 1.9993 l -0.7984,-4.6247 h -7.4737 l -0.5773,4.6247 h 1.9992 v 2.8217 z m 13.3391,-10.7408 -3.249,-16.1524 -3.0432,16.1524 z m 0,0"
         style="display:inline;opacity:1;stroke-width:0.996169" />
      <path
         inkscape:connector-curvature="0"
         id="path41-4-2-4-0"
         d="m 528.52654,-206.43478 v 2.8217 h 2.6923 l 5.7354,30.1783 h 3.26439 l 6.3179,-30.1783 h 2.1741 v -2.8217 h -7.4082 v 2.8217 h 1.9993 l -0.7984,4.6247 h -7.47369 l -0.5773,-4.6247 h 1.9992 v -2.8217 z m 13.33909,10.7408 -3.249,16.1524 -3.04319,-16.1524 z m 0,0"
         style="display:inline;opacity:1;stroke-width:0.996169" />
    </g>
  </g>
</svg>
